<?xml version="1.0" encoding="UTF-8"?>
<!-- Generator: Adobe Illustrator 24.1.0, SVG Export Plug-In . SVG Version: 6.00 Build 0)  -->
<svg version="1.0" xmlns="http://www.w3.org/2000/svg" xmlns:xlink="http://www.w3.org/1999/xlink" x="0px" y="0px" viewBox="0 0 1200 628" style="enable-background:new 0 0 1200 628;" xml:space="preserve">
<style type="text/css">
	.st0{clip-path:url(#SVGID_2_);fill:url(#SVGID_3_);}
	.st1{clip-path:url(#SVGID_2_);}
	.st2{opacity:0.11;fill:url(#SVGID_4_);enable-background:new    ;}
	.st3{opacity:0.61;fill:url(#SVGID_5_);enable-background:new    ;}
	.st4{clip-path:url(#SVGID_2_);fill:none;}
	.st5{fill:url(#SVGID_6_);}
	.st6{fill:url(#SVGID_7_);}
	.st7{fill:url(#SVGID_8_);}
	.st8{fill:url(#SVGID_9_);}
	.st9{fill:url(#SVGID_10_);}
	.st10{fill:url(#SVGID_11_);}
	.st11{fill:url(#SVGID_12_);}
	.st12{fill:url(#SVGID_13_);}
	.st13{fill:url(#SVGID_14_);}
	.st14{fill:url(#SVGID_15_);}
	.st15{fill:url(#SVGID_16_);}
	.st16{fill:url(#SVGID_17_);}
	.st17{fill:url(#SVGID_18_);}
	.st18{opacity:0.5;clip-path:url(#SVGID_22_);}
	.st19{fill:#91D0D6;stroke:#F8CC88;stroke-miterlimit:10;}
	.st20{opacity:0.5;clip-path:url(#SVGID_24_);fill:#FFFFFF;enable-background:new    ;}
	.st21{clip-path:url(#SVGID_26_);fill:#91D0D6;stroke:#F8CC88;stroke-miterlimit:10;}
	.st22{opacity:0.25;clip-path:url(#SVGID_28_);fill:#91D0D6;enable-background:new    ;}
	.st23{clip-path:url(#SVGID_30_);fill:#91D0D6;}
	.st24{opacity:0.25;clip-path:url(#SVGID_32_);fill:#D54D1D;enable-background:new    ;}
	.st25{clip-path:url(#SVGID_34_);fill:#91D0D6;}
	.st26{clip-path:url(#SVGID_36_);fill:#F8CC88;}
	.st27{opacity:0.5;clip-path:url(#SVGID_38_);}
	.st28{fill:#91D0D6;}
	.st29{opacity:0.25;fill:#D54D1D;enable-background:new    ;}
	.st30{clip-path:url(#SVGID_40_);fill:#FFFFFF;}
	.st31{opacity:0.25;clip-path:url(#SVGID_42_);fill:#91D0D6;enable-background:new    ;}
	.st32{clip-path:url(#SVGID_44_);fill:#FFFFFF;}
	.st33{clip-path:url(#SVGID_46_);fill:#91D0D6;}
	.st34{clip-path:url(#SVGID_48_);fill:#F8CC88;}
	.st35{clip-path:url(#SVGID_50_);fill:#91D0D6;}
	.st36{opacity:0.5;clip-path:url(#SVGID_52_);}
	.st37{fill:#FFFFFF;}
	.st38{opacity:0.25;fill:#91D0D6;enable-background:new    ;}
	.st39{opacity:0.5;}
	.st40{opacity:0.25;clip-path:url(#SVGID_54_);fill:#91D0D6;enable-background:new    ;}
	.st41{clip-path:url(#SVGID_56_);fill:#91D0D6;}
	.st42{clip-path:url(#SVGID_58_);fill:#91D0D6;}
	.st43{clip-path:url(#SVGID_60_);fill:#91D0D6;}
	.st44{clip-path:url(#SVGID_62_);fill:#FFFFFF;}
	.st45{clip-path:url(#SVGID_64_);fill:#FFFFFF;}
	.st46{opacity:0.25;clip-path:url(#SVGID_66_);fill:#91D0D6;enable-background:new    ;}
	.st47{clip-path:url(#SVGID_68_);fill:#91D0D6;}
	.st48{clip-path:url(#SVGID_70_);fill:#91D0D6;}
	.st49{clip-path:url(#SVGID_72_);fill:#F8CC88;}
	.st50{clip-path:url(#SVGID_74_);fill:#FFFFFF;}
	.st51{clip-path:url(#SVGID_76_);fill:#91D0D6;}
	.st52{opacity:0.25;clip-path:url(#SVGID_78_);fill:#91D0D6;enable-background:new    ;}
	.st53{opacity:0.25;clip-path:url(#SVGID_80_);fill:#91D0D6;enable-background:new    ;}
	.st54{opacity:0.25;clip-path:url(#SVGID_82_);fill:#D54D1D;enable-background:new    ;}
	.st55{clip-path:url(#SVGID_84_);fill:#91D0D6;}
	.st56{clip-path:url(#SVGID_86_);fill:#F8CC88;}
	.st57{clip-path:url(#SVGID_88_);fill:#F8CC88;}
	.st58{clip-path:url(#SVGID_90_);fill:#91D0D6;}
	.st59{clip-path:url(#SVGID_92_);fill:#FFFFFF;}
	.st60{clip-path:url(#SVGID_94_);fill:#FFFFFF;}
	.st61{clip-path:url(#SVGID_96_);fill:#91D0D6;}
	.st62{opacity:0.25;clip-path:url(#SVGID_98_);fill:#91D0D6;enable-background:new    ;}
	.st63{clip-path:url(#SVGID_100_);fill:#91D0D6;stroke:#F8CC88;stroke-miterlimit:10;}
	.st64{opacity:0.25;clip-path:url(#SVGID_102_);fill:#91D0D6;enable-background:new    ;}
	.st65{clip-path:url(#SVGID_106_);}
	.st66{fill:url(#SVGID_107_);}
	.st67{clip-path:url(#SVGID_109_);}
	.st68{fill:url(#SVGID_110_);}
	.st69{clip-path:url(#SVGID_2_);fill:url(#SVGID_113_);}
	.st70{opacity:0.5;clip-path:url(#SVGID_2_);}
	.st71{fill:url(#SVGID_114_);}
	.st72{fill:url(#SVGID_115_);}
	.st73{fill:url(#SVGID_116_);}
	.st74{opacity:0.4;}
	.st75{fill:#5084DA;}
	.st76{opacity:0.2278;}
	.st77{opacity:0.5;fill:#605ACA;}
	.st78{fill:#F5FAFA;}
	.st79{fill:url(#SVGID_117_);}
	.st80{fill:url(#SVGID_118_);}
	.st81{fill:url(#SVGID_119_);}
	.st82{fill:#4CA1FF;}
	.st83{clip-path:url(#SVGID_2_);fill:url(#SVGID_120_);}
	.st84{fill:#375A64;}
	.st85{fill:#1A2E35;}
	.st86{fill:#637382;}
	.st87{fill:#BDC7D1;}
	.st88{fill:#7B90A3;}
	.st89{opacity:0.4;fill:#637382;}
	.st90{fill:#DFEDF2;}
	.st91{opacity:0.98;fill:#085BB9;}
	.st92{fill:#FF9969;}
	.st93{fill:#84DAB1;}
	.st94{fill:#FBD56A;}
	.st95{fill:#A8CEE1;}
	.st96{fill:#A71425;}
	.st97{fill:#E9F3FE;}
	.st98{fill:#0A4273;}
	.st99{fill:#19B3D2;}
	.st100{fill:#09904F;}
	.st101{fill:#FFC1A3;}
	.st102{fill:#002851;}
	.st103{fill:#0755A3;}
	.st104{fill:#085BB9;}
	.st105{fill:#EAEAEA;}
	.st106{fill:#961226;}
	.st107{fill:#99570F;}
	.st108{fill:#E6950C;}
	.st109{fill:#1C468A;}
	.st110{fill:#D01A30;}
	.st111{fill:#94241D;}
</style>
<g id="fondo">
</g>
<g id="Capa_1">
	<g>
		<defs>
			<rect id="SVGID_1_" x="0" y="0" width="1200" height="628"/>
		</defs>
		<clipPath id="SVGID_2_">
			<use xlink:href="#SVGID_1_" style="overflow:visible;"/>
		</clipPath>
		
			<linearGradient id="SVGID_3_" gradientUnits="userSpaceOnUse" x1="600.9816" y1="227.2431" x2="600.9816" y2="887.6158" gradientTransform="matrix(1 0 0 -1 0 630)">
			<stop offset="0" style="stop-color:#E9F6FF"/>
			<stop offset="0.9656" style="stop-color:#00426A"/>
		</linearGradient>
		<rect x="0.2" y="-47.5" class="st0" width="1201.5" height="680.1"/>
		<g class="st1">
			
				<linearGradient id="SVGID_4_" gradientUnits="userSpaceOnUse" x1="654.9155" y1="846.546" x2="709.3813" y2="346.7396" gradientTransform="matrix(1 0 0 -1 0 630)">
				<stop offset="0" style="stop-color:#6CC7E2"/>
				<stop offset="1" style="stop-color:#EADCC8"/>
			</linearGradient>
			<path class="st2" d="M1199.3,718.6V-47.5h-81.6c-1.3,7.7-1.6,15.6-4.1,22.9c-17.4,51.4-111.4,28.9-135,77.8     c-9,18.7-4,43.1-16.9,59.4c-20.7,26.3-61.5,8.6-94,0.9c-49.7-11.7-105.6,9.5-135,51.2c-24.1,34.3-36.8,84.5-77.6,94.2     c-11.3,2.7-23.9,1.8-33.6,8.2c-26.3,17.4-14.5,75-46,75.8c-10.2,0.3-18.8-7.2-28.7-9.8c-31.9-8.4-51.9,31.9-66.1,61.7     c-37.1,77.7-119.6,121.1-203.4,122.8c-43.5,0.9-65.7-2.1-62.5,53.1c2.2,38,28.2,75.5,58.5,97c54.3,38.6,123.4,48.2,189.5,56.7     c53.5,6.9,107.1,13.8,160.6,20.7c21.5,2.8,43.1,5.5,64.7,8.2h378.2C1111.2,744.7,1155.5,732.6,1199.3,718.6z"/>
			
				<linearGradient id="SVGID_5_" gradientUnits="userSpaceOnUse" x1="831.0833" y1="595.6256" x2="939.209" y2="119.8737" gradientTransform="matrix(1 0 0 -1 0 630)">
				<stop offset="0" style="stop-color:#FFFFFF"/>
				<stop offset="1" style="stop-color:#EADCC8;stop-opacity:0"/>
			</linearGradient>
			<path class="st3" d="M1199.3,135.6c-12.1,9-22.6,20.7-36.9,25.4c-22.1,7.3-54.4,0-62.6,21.7c-2.2,5.8-1.7,12.3-3.7,18.2     c-9.6,28.4-61.6,16-74.6,43c-5,10.4-2.2,23.8-9.3,32.8c-11.4,14.5-34,4.8-52,0.5c-27.5-6.5-58.4,5.2-74.6,28.3     c-13.3,18.9-20.3,46.7-42.9,52.1c-6.2,1.5-13.2,1-18.6,4.5c-14.5,9.6-8,41.5-25.4,41.9c-5.6,0.1-10.4-4-15.9-5.4     c-17.6-4.7-28.7,17.7-36.6,34.1c-20.5,43-66.1,67-112.4,67.9c-24.1,0.5-36.3-1.2-34.6,29.4c1.2,21,15.6,41.7,32.4,53.6     c30,21.3,68.2,26.6,104.7,31.3c29.6,3.8,59.2,7.6,88.8,11.4c70.7,9.1,142.3,18.2,213.1,9.6c55.4-6.8,108.7-24.3,161.1-43.9     L1199.3,135.6L1199.3,135.6z"/>
		</g>
		<rect x="-1.3" y="4.6" class="st4" width="1204.9" height="631.6"/>
		<rect x="0.2" y="-47.5" class="st4" width="1201.5" height="801"/>
		<g class="st1">
			
				<linearGradient id="SVGID_6_" gradientUnits="userSpaceOnUse" x1="133.0113" y1="594.5615" x2="134.4657" y2="608.621" gradientTransform="matrix(1 0 0 -1 0 630)">
				<stop offset="0" style="stop-color:#6CC7E2"/>
				<stop offset="1" style="stop-color:#EADCC8"/>
			</linearGradient>
			<path class="st5" d="M139.9,27.5c0,3.4-2.7,6.1-6.1,6.1c-3.4,0-6.1-2.7-6.1-6.1s2.7-6.1,6.1-6.1     C137.1,21.4,139.9,24.2,139.9,27.5z"/>
			
				<linearGradient id="SVGID_7_" gradientUnits="userSpaceOnUse" x1="224.4534" y1="474.0689" x2="225.3097" y2="482.3469" gradientTransform="matrix(1 0 0 -1 0 630)">
				<stop offset="0" style="stop-color:#6CC7E2"/>
				<stop offset="1" style="stop-color:#EADCC8"/>
			</linearGradient>
			<path class="st6" d="M228.5,151.3c0,2-1.6,3.6-3.6,3.6s-3.6-1.6-3.6-3.6s1.6-3.6,3.6-3.6S228.5,149.3,228.5,151.3z"/>
			
				<linearGradient id="SVGID_8_" gradientUnits="userSpaceOnUse" x1="911.7479" y1="599.015" x2="912.6042" y2="607.2928" gradientTransform="matrix(1 0 0 -1 0 630)">
				<stop offset="0" style="stop-color:#6CC7E2"/>
				<stop offset="1" style="stop-color:#EADCC8"/>
			</linearGradient>
			<path class="st7" d="M915.8,26.3c0,2-1.6,3.6-3.6,3.6s-3.6-1.6-3.6-3.6s1.6-3.6,3.6-3.6S915.8,24.4,915.8,26.3z"/>
			
				<linearGradient id="SVGID_9_" gradientUnits="userSpaceOnUse" x1="301.4498" y1="358.7341" x2="302.3062" y2="367.0121" gradientTransform="matrix(1 0 0 -1 0 630)">
				<stop offset="0" style="stop-color:#6CC7E2"/>
				<stop offset="1" style="stop-color:#EADCC8"/>
			</linearGradient>
			<path class="st8" d="M305.5,266.6c0,2-1.6,3.6-3.6,3.6s-3.6-1.6-3.6-3.6s1.6-3.6,3.6-3.6S305.5,264.6,305.5,266.6z"/>
			
				<linearGradient id="SVGID_10_" gradientUnits="userSpaceOnUse" x1="418.0487" y1="440.4233" x2="418.905" y2="448.7011" gradientTransform="matrix(1 0 0 -1 0 630)">
				<stop offset="0" style="stop-color:#6CC7E2"/>
				<stop offset="1" style="stop-color:#EADCC8"/>
			</linearGradient>
			<path class="st9" d="M422.1,184.9c0,2-1.6,3.6-3.6,3.6s-3.6-1.6-3.6-3.6s1.6-3.6,3.6-3.6S422.1,182.9,422.1,184.9z"/>
			
				<linearGradient id="SVGID_11_" gradientUnits="userSpaceOnUse" x1="414.9524" y1="558.0583" x2="415.8087" y2="566.3364" gradientTransform="matrix(1 0 0 -1 0 630)">
				<stop offset="0" style="stop-color:#6CC7E2"/>
				<stop offset="1" style="stop-color:#EADCC8"/>
			</linearGradient>
			<path class="st10" d="M419,67.3c0,2-1.6,3.6-3.6,3.6s-3.6-1.6-3.6-3.6s1.6-3.6,3.6-3.6S419,65.3,419,67.3z"/>
			
				<linearGradient id="SVGID_12_" gradientUnits="userSpaceOnUse" x1="60.0474" y1="517.3111" x2="60.9038" y2="525.5889" gradientTransform="matrix(1 0 0 -1 0 630)">
				<stop offset="0" style="stop-color:#6CC7E2"/>
				<stop offset="1" style="stop-color:#EADCC8"/>
			</linearGradient>
			<path class="st11" d="M64.1,108c0,2-1.6,3.6-3.6,3.6s-3.6-1.6-3.6-3.6s1.6-3.6,3.6-3.6S64.1,106,64.1,108z"/>
			
				<linearGradient id="SVGID_13_" gradientUnits="userSpaceOnUse" x1="758.0477" y1="603.8124" x2="758.9039" y2="612.0902" gradientTransform="matrix(1 0 0 -1 0 630)">
				<stop offset="0" style="stop-color:#6CC7E2"/>
				<stop offset="1" style="stop-color:#EADCC8"/>
			</linearGradient>
			<path class="st12" d="M762.1,21.5c0,2-1.6,3.6-3.6,3.6s-3.6-1.6-3.6-3.6s1.6-3.6,3.6-3.6S762.1,19.5,762.1,21.5z"/>
			
				<linearGradient id="SVGID_14_" gradientUnits="userSpaceOnUse" x1="1126.8488" y1="347.923" x2="1127.7051" y2="356.2009" gradientTransform="matrix(1 0 0 -1 0 630)">
				<stop offset="0" style="stop-color:#6CC7E2"/>
				<stop offset="1" style="stop-color:#EADCC8"/>
			</linearGradient>
			<path class="st13" d="M1130.9,277.4c0,2-1.6,3.6-3.6,3.6s-3.6-1.6-3.6-3.6s1.6-3.6,3.6-3.6     C1129.3,273.8,1130.9,275.4,1130.9,277.4z"/>
			
				<linearGradient id="SVGID_15_" gradientUnits="userSpaceOnUse" x1="737.6478" y1="349.1141" x2="738.5041" y2="357.3921" gradientTransform="matrix(1 0 0 -1 0 630)">
				<stop offset="0" style="stop-color:#6CC7E2"/>
				<stop offset="1" style="stop-color:#EADCC8"/>
			</linearGradient>
			<path class="st14" d="M741.7,276.2c0,2-1.6,3.6-3.6,3.6s-3.6-1.6-3.6-3.6s1.6-3.6,3.6-3.6S741.7,274.2,741.7,276.2z"/>
			
				<linearGradient id="SVGID_16_" gradientUnits="userSpaceOnUse" x1="497.5541" y1="344.1751" x2="497.8717" y2="347.2452" gradientTransform="matrix(1 0 0 -1 0 630)">
				<stop offset="0" style="stop-color:#6CC7E2"/>
				<stop offset="1" style="stop-color:#EADCC8"/>
			</linearGradient>
			<path class="st15" d="M499,284.1c0,0.7-0.6,1.3-1.3,1.3c-0.7,0-1.3-0.6-1.3-1.3s0.6-1.3,1.3-1.3S499,283.4,499,284.1z"/>
			
				<linearGradient id="SVGID_17_" gradientUnits="userSpaceOnUse" x1="675.4583" y1="535.7163" x2="675.7759" y2="538.7866" gradientTransform="matrix(1 0 0 -1 0 630)">
				<stop offset="0" style="stop-color:#6CC7E2"/>
				<stop offset="1" style="stop-color:#EADCC8"/>
			</linearGradient>
			<path class="st16" d="M676.9,92.6c0,0.7-0.6,1.3-1.3,1.3s-1.3-0.6-1.3-1.3c0-0.7,0.6-1.3,1.3-1.3     C676.3,91.2,676.9,91.8,676.9,92.6z"/>
			
				<linearGradient id="SVGID_18_" gradientUnits="userSpaceOnUse" x1="1002.2528" y1="319.4633" x2="1002.5704" y2="322.5334" gradientTransform="matrix(1 0 0 -1 0 630)">
				<stop offset="0" style="stop-color:#6CC7E2"/>
				<stop offset="1" style="stop-color:#EADCC8"/>
			</linearGradient>
			<path class="st17" d="M1003.7,308.8c0,0.7-0.6,1.3-1.3,1.3s-1.3-0.6-1.3-1.3s0.6-1.3,1.3-1.3     C1003.1,307.5,1003.7,308.1,1003.7,308.8z"/>
		</g>
		<rect x="-1.3" y="4.6" class="st4" width="1204.9" height="631.6"/>
		<g class="st1">
			<g>
				<defs>
					<rect id="SVGID_19_" x="-3.3" y="3" width="1205.4" height="633"/>
				</defs>
				<clipPath id="SVGID_20_">
					<use xlink:href="#SVGID_19_" style="overflow:visible;"/>
				</clipPath>
			</g>
		</g>
		<g class="st1">
			<defs>
				<rect id="SVGID_21_" x="-1.3" y="4.6" width="1204.9" height="631.6"/>
			</defs>
			<clipPath id="SVGID_22_">
				<use xlink:href="#SVGID_21_" style="overflow:visible;"/>
			</clipPath>
			<g class="st18">
				<circle class="st19" cx="130.4" cy="212.6" r="2"/>
			</g>
		</g>
		<g class="st1">
			<defs>
				<rect id="SVGID_23_" x="-1.3" y="4.6" width="1204.9" height="631.6"/>
			</defs>
			<clipPath id="SVGID_24_">
				<use xlink:href="#SVGID_23_" style="overflow:visible;"/>
			</clipPath>
			<circle class="st20" cx="515.9" cy="181" r="2"/>
		</g>
		<g class="st1">
			<defs>
				<rect id="SVGID_25_" x="-1.3" y="4.6" width="1204.9" height="631.6"/>
			</defs>
			<clipPath id="SVGID_26_">
				<use xlink:href="#SVGID_25_" style="overflow:visible;"/>
			</clipPath>
			<circle class="st21" cx="275.2" cy="85.8" r="2"/>
		</g>
		<g class="st1">
			<defs>
				<rect id="SVGID_27_" x="-1.3" y="4.6" width="1204.9" height="631.6"/>
			</defs>
			<clipPath id="SVGID_28_">
				<use xlink:href="#SVGID_27_" style="overflow:visible;"/>
			</clipPath>
			<circle class="st22" cx="194.9" cy="158" r="3.3"/>
		</g>
		<g class="st1">
			<defs>
				<rect id="SVGID_29_" x="-1.3" y="4.6" width="1204.9" height="631.6"/>
			</defs>
			<clipPath id="SVGID_30_">
				<use xlink:href="#SVGID_29_" style="overflow:visible;"/>
			</clipPath>
			<circle class="st23" cx="86" cy="320.9" r="2"/>
		</g>
		<g class="st1">
			<defs>
				<rect id="SVGID_31_" x="-1.3" y="4.6" width="1204.9" height="631.6"/>
			</defs>
			<clipPath id="SVGID_32_">
				<use xlink:href="#SVGID_31_" style="overflow:visible;"/>
			</clipPath>
			<circle class="st24" cx="427.5" cy="110.1" r="2"/>
		</g>
		<g class="st1">
			<defs>
				<rect id="SVGID_33_" x="-1.3" y="4.6" width="1204.9" height="631.6"/>
			</defs>
			<clipPath id="SVGID_34_">
				<use xlink:href="#SVGID_33_" style="overflow:visible;"/>
			</clipPath>
			<circle class="st25" cx="409.4" cy="50.8" r="2"/>
		</g>
		<g class="st1">
			<defs>
				<rect id="SVGID_35_" x="-1.3" y="4.6" width="1204.9" height="631.6"/>
			</defs>
			<clipPath id="SVGID_36_">
				<use xlink:href="#SVGID_35_" style="overflow:visible;"/>
			</clipPath>
			<circle class="st26" cx="607.2" cy="30.7" r="2"/>
		</g>
		<g class="st1">
			<defs>
				<rect id="SVGID_37_" x="-1.3" y="4.6" width="1204.9" height="631.6"/>
			</defs>
			<clipPath id="SVGID_38_">
				<use xlink:href="#SVGID_37_" style="overflow:visible;"/>
			</clipPath>
			<g class="st27">
				<circle class="st28" cx="324.9" cy="23.7" r="2"/>
				<circle class="st29" cx="739.4" cy="258.7" r="2"/>
				<circle class="st28" cx="598.9" cy="123.5" r="2"/>
			</g>
		</g>
		<g class="st1">
			<defs>
				<rect id="SVGID_39_" x="-1.3" y="4.6" width="1204.9" height="631.6"/>
			</defs>
			<clipPath id="SVGID_40_">
				<use xlink:href="#SVGID_39_" style="overflow:visible;"/>
			</clipPath>
			<circle class="st30" cx="752.9" cy="121.6" r="2"/>
		</g>
		<g class="st1">
			<defs>
				<rect id="SVGID_41_" x="-1.3" y="4.6" width="1204.9" height="631.6"/>
			</defs>
			<clipPath id="SVGID_42_">
				<use xlink:href="#SVGID_41_" style="overflow:visible;"/>
			</clipPath>
			<circle class="st31" cx="669.5" cy="98.3" r="3.3"/>
		</g>
		<g class="st1">
			<defs>
				<rect id="SVGID_43_" x="-1.3" y="4.6" width="1204.9" height="631.6"/>
			</defs>
			<clipPath id="SVGID_44_">
				<use xlink:href="#SVGID_43_" style="overflow:visible;"/>
			</clipPath>
			<circle class="st32" cx="711.2" cy="14.3" r="2"/>
		</g>
		<g class="st1">
			<defs>
				<rect id="SVGID_45_" x="-1.3" y="4.6" width="1204.9" height="631.6"/>
			</defs>
			<clipPath id="SVGID_46_">
				<use xlink:href="#SVGID_45_" style="overflow:visible;"/>
			</clipPath>
			<circle class="st33" cx="835.1" cy="76.7" r="2"/>
		</g>
		<g class="st1">
			<defs>
				<rect id="SVGID_47_" x="-1.3" y="4.6" width="1204.9" height="631.6"/>
			</defs>
			<clipPath id="SVGID_48_">
				<use xlink:href="#SVGID_47_" style="overflow:visible;"/>
			</clipPath>
			<circle class="st34" cx="504.6" cy="74.7" r="2"/>
		</g>
		<g class="st1">
			<defs>
				<rect id="SVGID_49_" x="-1.3" y="4.6" width="1204.9" height="631.6"/>
			</defs>
			<clipPath id="SVGID_50_">
				<use xlink:href="#SVGID_49_" style="overflow:visible;"/>
			</clipPath>
			<circle class="st35" cx="343" cy="143.6" r="1.3"/>
		</g>
		<g class="st1">
			<defs>
				<rect id="SVGID_51_" x="-1.3" y="4.6" width="1204.9" height="631.6"/>
			</defs>
			<clipPath id="SVGID_52_">
				<use xlink:href="#SVGID_51_" style="overflow:visible;"/>
			</clipPath>
			<g class="st36">
				
					<ellipse transform="matrix(1 -2.487414e-03 2.487414e-03 1 -0.6661 1.757291e-02)" class="st37" cx="6.7" cy="267.8" rx="1.3" ry="1.3"/>
				<circle class="st29" cx="315.3" cy="247.6" r="2"/>
				<circle class="st38" cx="425.5" cy="256.7" r="1.3"/>
				<g class="st39">
					<circle class="st29" cx="315.3" cy="247.6" r="2"/>
				</g>
				<circle class="st19" cx="837.1" cy="158" r="2"/>
			</g>
		</g>
		<g class="st1">
			<defs>
				<rect id="SVGID_53_" x="-1.3" y="4.6" width="1204.9" height="631.6"/>
			</defs>
			<clipPath id="SVGID_54_">
				<use xlink:href="#SVGID_53_" style="overflow:visible;"/>
			</clipPath>
			<circle class="st40" cx="276.7" cy="393.2" r="3.3"/>
		</g>
		<g class="st1">
			<defs>
				<rect id="SVGID_55_" x="-1.3" y="4.6" width="1204.9" height="631.6"/>
			</defs>
			<clipPath id="SVGID_56_">
				<use xlink:href="#SVGID_55_" style="overflow:visible;"/>
			</clipPath>
			<circle class="st41" cx="167.8" cy="556.1" r="2"/>
		</g>
		<g class="st1">
			<defs>
				<rect id="SVGID_57_" x="-1.3" y="4.6" width="1204.9" height="631.6"/>
			</defs>
			<clipPath id="SVGID_58_">
				<use xlink:href="#SVGID_57_" style="overflow:visible;"/>
			</clipPath>
			<circle class="st42" cx="229.3" cy="46.7" r="2"/>
		</g>
		<g class="st1">
			<defs>
				<rect id="SVGID_59_" x="-1.3" y="4.6" width="1204.9" height="631.6"/>
			</defs>
			<clipPath id="SVGID_60_">
				<use xlink:href="#SVGID_59_" style="overflow:visible;"/>
			</clipPath>
			<circle class="st43" cx="423.6" cy="198.7" r="2"/>
		</g>
		<g class="st1">
			<defs>
				<rect id="SVGID_61_" x="-1.3" y="4.6" width="1204.9" height="631.6"/>
			</defs>
			<clipPath id="SVGID_62_">
				<use xlink:href="#SVGID_61_" style="overflow:visible;"/>
			</clipPath>
			<ellipse class="st44" cx="217.2" cy="95.8" rx="2" ry="2"/>
		</g>
		<g class="st1">
			<defs>
				<rect id="SVGID_63_" x="-1.3" y="4.6" width="1204.9" height="631.6"/>
			</defs>
			<clipPath id="SVGID_64_">
				<use xlink:href="#SVGID_63_" style="overflow:visible;"/>
			</clipPath>
			<circle class="st45" cx="914.9" cy="242.2" r="2"/>
		</g>
		<g class="st1">
			<defs>
				<rect id="SVGID_65_" x="-1.3" y="4.6" width="1204.9" height="631.6"/>
			</defs>
			<clipPath id="SVGID_66_">
				<use xlink:href="#SVGID_65_" style="overflow:visible;"/>
			</clipPath>
			<circle class="st46" cx="880.5" cy="217.1" r="2"/>
		</g>
		<g class="st1">
			<defs>
				<rect id="SVGID_67_" x="-1.3" y="4.6" width="1204.9" height="631.6"/>
			</defs>
			<clipPath id="SVGID_68_">
				<use xlink:href="#SVGID_67_" style="overflow:visible;"/>
			</clipPath>
			<circle class="st47" cx="210.9" cy="238.2" r="1.3"/>
		</g>
		<g class="st1">
			<defs>
				
					<rect id="SVGID_69_" x="6" y="60" transform="matrix(0.9938 -0.111 0.111 0.9938 -37.9575 69.86)" width="1204.9" height="631.6"/>
			</defs>
			<clipPath id="SVGID_70_">
				<use xlink:href="#SVGID_69_" style="overflow:visible;"/>
			</clipPath>
			
				<ellipse transform="matrix(0.9938 -0.111 0.111 0.9938 -24.5902 124.1298)" class="st48" cx="1102.5" cy="282.9" rx="1.3" ry="1.3"/>
		</g>
		<g class="st1">
			<defs>
				<rect id="SVGID_71_" x="-1.3" y="4.6" width="1204.9" height="631.6"/>
			</defs>
			<clipPath id="SVGID_72_">
				<use xlink:href="#SVGID_71_" style="overflow:visible;"/>
			</clipPath>
			<circle class="st49" cx="1041.4" cy="338.4" r="2"/>
		</g>
		<g class="st1">
			<defs>
				<rect id="SVGID_73_" x="-1.3" y="4.6" width="1204.9" height="631.6"/>
			</defs>
			<clipPath id="SVGID_74_">
				<use xlink:href="#SVGID_73_" style="overflow:visible;"/>
			</clipPath>
			<circle class="st50" cx="944.6" cy="142" r="2"/>
		</g>
		<g class="st1">
			<defs>
				<rect id="SVGID_75_" x="-1.3" y="4.6" width="1204.9" height="631.6"/>
			</defs>
			<clipPath id="SVGID_76_">
				<use xlink:href="#SVGID_75_" style="overflow:visible;"/>
			</clipPath>
			<circle class="st51" cx="813.5" cy="384.4" r="2"/>
		</g>
		<g class="st1">
			<defs>
				<rect id="SVGID_77_" x="-1.3" y="4.6" width="1204.9" height="631.6"/>
			</defs>
			<clipPath id="SVGID_78_">
				<use xlink:href="#SVGID_77_" style="overflow:visible;"/>
			</clipPath>
			<circle class="st52" cx="942" cy="268.2" r="2"/>
		</g>
		<g class="st1">
			<defs>
				<rect id="SVGID_79_" x="-1.3" y="4.6" width="1204.9" height="631.6"/>
			</defs>
			<clipPath id="SVGID_80_">
				<use xlink:href="#SVGID_79_" style="overflow:visible;"/>
			</clipPath>
			<circle class="st53" cx="778.1" cy="489.5" r="2"/>
		</g>
		<g class="st1">
			<defs>
				<rect id="SVGID_81_" x="-1.3" y="4.6" width="1204.9" height="631.6"/>
			</defs>
			<clipPath id="SVGID_82_">
				<use xlink:href="#SVGID_81_" style="overflow:visible;"/>
			</clipPath>
			<circle class="st54" cx="1088.5" cy="633.5" r="2"/>
		</g>
		<g class="st1">
			<defs>
				<rect id="SVGID_83_" x="-1.3" y="4.6" width="1204.9" height="631.6"/>
			</defs>
			<clipPath id="SVGID_84_">
				<use xlink:href="#SVGID_83_" style="overflow:visible;"/>
			</clipPath>
			<circle class="st55" cx="1070.3" cy="574.3" r="2"/>
		</g>
		<g class="st1">
			<defs>
				<rect id="SVGID_85_" x="-1.3" y="4.6" width="1204.9" height="631.6"/>
			</defs>
			<clipPath id="SVGID_86_">
				<use xlink:href="#SVGID_85_" style="overflow:visible;"/>
			</clipPath>
			<circle class="st56" cx="1165.6" cy="598.1" r="2"/>
		</g>
		<g class="st1">
			<defs>
				<rect id="SVGID_87_" x="-1.3" y="4.6" width="1204.9" height="631.6"/>
			</defs>
			<clipPath id="SVGID_88_">
				<use xlink:href="#SVGID_87_" style="overflow:visible;"/>
			</clipPath>
			<circle class="st57" cx="1152" cy="164.3" r="2"/>
		</g>
		<g class="st1">
			<defs>
				<rect id="SVGID_89_" x="-1.3" y="4.6" width="1204.9" height="631.6"/>
			</defs>
			<clipPath id="SVGID_90_">
				<use xlink:href="#SVGID_89_" style="overflow:visible;"/>
			</clipPath>
			<circle class="st58" cx="1161.4" cy="71.6" r="2"/>
		</g>
		<g class="st1">
			<defs>
				<rect id="SVGID_91_" x="-1.3" y="4.6" width="1204.9" height="631.6"/>
			</defs>
			<clipPath id="SVGID_92_">
				<use xlink:href="#SVGID_91_" style="overflow:visible;"/>
			</clipPath>
			<circle class="st59" cx="1007.3" cy="71.8" r="2"/>
		</g>
		<g class="st1">
			<defs>
				<rect id="SVGID_93_" x="-1.3" y="4.6" width="1204.9" height="631.6"/>
			</defs>
			<clipPath id="SVGID_94_">
				<use xlink:href="#SVGID_93_" style="overflow:visible;"/>
			</clipPath>
			<circle class="st60" cx="1047.7" cy="179.4" r="2"/>
		</g>
		<g class="st1">
			<defs>
				<rect id="SVGID_95_" x="-1.3" y="4.6" width="1204.9" height="631.6"/>
			</defs>
			<clipPath id="SVGID_96_">
				<use xlink:href="#SVGID_95_" style="overflow:visible;"/>
			</clipPath>
			<circle class="st61" cx="924.5" cy="115.7" r="2"/>
		</g>
		<g class="st1">
			<defs>
				<rect id="SVGID_97_" x="-1.3" y="4.6" width="1204.9" height="631.6"/>
			</defs>
			<clipPath id="SVGID_98_">
				<use xlink:href="#SVGID_97_" style="overflow:visible;"/>
			</clipPath>
			<circle class="st62" cx="959.9" cy="210.8" r="2"/>
		</g>
		<g class="st1">
			<defs>
				<rect id="SVGID_99_" x="-1.3" y="4.6" width="1204.9" height="631.6"/>
			</defs>
			<clipPath id="SVGID_100_">
				<use xlink:href="#SVGID_99_" style="overflow:visible;"/>
			</clipPath>
			<circle class="st63" cx="923.5" cy="34.3" r="2"/>
		</g>
		<g class="st1">
			<defs>
				<rect id="SVGID_101_" x="-1.3" y="4.6" width="1204.9" height="631.6"/>
			</defs>
			<clipPath id="SVGID_102_">
				<use xlink:href="#SVGID_101_" style="overflow:visible;"/>
			</clipPath>
			<circle class="st64" cx="574.3" cy="119.6" r="4.4"/>
		</g>
		<rect x="-1.3" y="4.6" class="st4" width="1204.9" height="631.6"/>
		<g class="st1">
			<defs>
				<rect id="SVGID_103_" x="-1.3" y="4.6" width="1204.9" height="631.6"/>
			</defs>
			<clipPath id="SVGID_104_">
				<use xlink:href="#SVGID_103_" style="overflow:visible;"/>
			</clipPath>
		</g>
		<g class="st1">
			<defs>
				<rect id="SVGID_105_" x="-1.3" y="4.6" width="1204.9" height="631.6"/>
			</defs>
			<clipPath id="SVGID_106_">
				<use xlink:href="#SVGID_105_" style="overflow:visible;"/>
			</clipPath>
			<g class="st65">
				
					<linearGradient id="SVGID_107_" gradientUnits="userSpaceOnUse" x1="784.2317" y1="929.3841" x2="1037.9318" y2="929.3841" gradientTransform="matrix(1 0 0 1 0 -320)">
					<stop offset="0" style="stop-color:#FFF6DA"/>
					<stop offset="0.2094" style="stop-color:#FEE6C4"/>
					<stop offset="0.4875" style="stop-color:#FCD6AF"/>
					<stop offset="0.7555" style="stop-color:#FBCCA1"/>
					<stop offset="1" style="stop-color:#FBC99D"/>
				</linearGradient>
				<path class="st66" d="M786.6,599.6c33.9,8.4,69.3-19.8,102.9-10.6c12.5,3.4,23.5,11.8,36.2,14.2c11.8,2.3,24.1-0.8,36.1-0.5      c26.7,0.7,50,17.7,76.1,23.4c-7.3,3.2-15.3,4.4-23.4,5c-48.9,3.6-97-12.5-145.8-16.9c-28.7-2.6-58.9-1.5-84.5-14.7"/>
			</g>
		</g>
		<g class="st1">
			<defs>
				<rect id="SVGID_108_" x="-1.3" y="4.6" width="1204.9" height="631.6"/>
			</defs>
			<clipPath id="SVGID_109_">
				<use xlink:href="#SVGID_108_" style="overflow:visible;"/>
			</clipPath>
			<g class="st67">
				
					<linearGradient id="SVGID_110_" gradientUnits="userSpaceOnUse" x1="231.4317" y1="927.8841" x2="485.1317" y2="927.8841" gradientTransform="matrix(1 0 0 1 0 -320)">
					<stop offset="0" style="stop-color:#FFF6DA"/>
					<stop offset="0.2094" style="stop-color:#FEE6C4"/>
					<stop offset="0.4875" style="stop-color:#FCD6AF"/>
					<stop offset="0.7555" style="stop-color:#FBCCA1"/>
					<stop offset="1" style="stop-color:#FBC99D"/>
				</linearGradient>
				<path class="st68" d="M233.8,598.1c33.9,8.4,69.3-19.8,102.9-10.6c12.5,3.4,23.5,11.8,36.2,14.2c11.8,2.3,24.1-0.8,36.1-0.5      c26.7,0.7,50,17.7,76.1,23.4c-7.3,3.2-15.3,4.4-23.4,5c-48.9,3.6-97-12.5-145.8-16.9c-28.7-2.6-58.9-1.5-84.5-14.7"/>
			</g>
		</g>
		<rect x="-1.3" y="4.6" class="st4" width="1204.9" height="631.6"/>
		<g class="st1">
			<defs>
				<rect id="SVGID_111_" x="-1.3" y="4.6" width="1204.9" height="631.6"/>
			</defs>
			<clipPath id="SVGID_112_">
				<use xlink:href="#SVGID_111_" style="overflow:visible;"/>
			</clipPath>
		</g>
		<rect x="0.8" y="2.7" class="st4" width="1199.9" height="633"/>
		<rect x="-0.2" y="4.2" class="st4" width="1200.9" height="633"/>
		<rect x="1.6" y="3.6" class="st4" width="1200" height="632"/>
		
			<linearGradient id="SVGID_113_" gradientUnits="userSpaceOnUse" x1="208.8315" y1="147.3194" x2="165.0077" y2="-120.625" gradientTransform="matrix(1 0 0 1 0 174)">
			<stop offset="0" style="stop-color:#FFFFFF"/>
			<stop offset="0.9986" style="stop-color:#FFFFFF;stop-opacity:0"/>
		</linearGradient>
		<circle class="st69" cx="186.1" cy="182.1" r="76.3"/>
		<g class="st70">
			<path class="st37" d="M88.6,515.7c0.7,0,1.3,0.6,1.3,1.3c0,0.7-0.6,1.3-1.3,1.3s-1.3-0.6-1.3-1.3     C87.3,516.3,87.9,515.7,88.6,515.7z"/>
			<circle class="st38" cx="507.3" cy="506" r="1.3"/>
		</g>
		<rect x="376.4" y="397.9" class="st4" width="443.7" height="183.6"/>
		<rect x="376.4" y="397.9" class="st4" width="443.7" height="183.6"/>
		<rect x="376.4" y="397.9" class="st4" width="443.7" height="183.6"/>
		<g class="st1">
			<g>
				<linearGradient id="SVGID_114_" gradientUnits="userSpaceOnUse" x1="918.3312" y1="511.7839" x2="1073.938" y2="511.7839">
					<stop offset="0" style="stop-color:#EAFFD4"/>
					<stop offset="0.8412" style="stop-color:#006A54"/>
				</linearGradient>
				<path class="st71" d="M990.8,584.9c0,0-4.1-44.5-21.3-86.7c-0.5-1.3,8.5-2.1,8.5-2.1s-12.1-6.2-13.1-8.4      c-10.8-22.8-25.8-43.8-46.5-55c0,0,127.3-5.5,155.6,158.1L990.8,584.9z"/>
			</g>
			<g>
				<linearGradient id="SVGID_115_" gradientUnits="userSpaceOnUse" x1="1136.0643" y1="471.2648" x2="1217.4036" y2="471.2648">
					<stop offset="0" style="stop-color:#EAFFD4"/>
					<stop offset="0.8412" style="stop-color:#006A54"/>
				</linearGradient>
				<path class="st72" d="M1136.1,512.8c0,0,28.6-54,33.6-159.7c0,0,65.6,71.9,43,236.3L1138,584L1136.1,512.8z"/>
			</g>
			<g>
				<linearGradient id="SVGID_116_" gradientUnits="userSpaceOnUse" x1="1015.1273" y1="458.9356" x2="1164.7911" y2="458.9356">
					<stop offset="0" style="stop-color:#EAFFD4"/>
					<stop offset="0.8412" style="stop-color:#006A54"/>
				</linearGradient>
				<path class="st73" d="M1063.4,588.3c0,0-15.6-24.4-29-64c-0.5-1.6,8.8-4.9,8.8-4.9s-12.2-5.4-13-8.3      c-14.2-47.3-23.4-112-3.7-181.7c0,0,29.4,21.1,61.6,64.3c1.4,1.8,0.3,14,0.3,14s6.2-5.1,7.3-3.4c28.6,41.1,57.6,99.3,69.2,175.3      L1063.4,588.3z"/>
			</g>
			<g class="st74">
				<g>
					<path class="st75" d="M1026.4,329.5c13.1,20.4,24.6,41.8,35.2,63.6c10.7,21.8,20,44.2,28.6,66.9c4.4,11.3,8,22.9,11.9,34.4       l5.2,17.4c0.9,2.9,1.8,5.8,2.6,8.7l2.2,8.8c6.3,23.4,10.6,47.4,14,71.4l-3.7-17.8l-1.8-8.9c-0.7-3-1.4-5.9-2.1-8.8l-4.2-17.6       l-4.8-17.5c-3.1-11.7-6.9-23.2-10.4-34.7c-4-11.4-7.7-22.9-12.1-34.2c-8.3-22.7-17.6-45-27.7-67c-5-11-10.3-21.9-15.7-32.7       C1038,350.8,1032.4,340.1,1026.4,329.5z"/>
				</g>
				<g>
					<path class="st75" d="M1094.7,477.3c-4.2-4.5-8.5-8.9-12.8-13.3c-4.3-4.3-8.7-8.6-13.1-12.7c-4.4-4.2-9.1-8-13.8-11.9       c-4.8-3.7-9.8-7.3-14.9-10.6c5.8,2.1,11.4,5,16.5,8.4c5.2,3.4,10,7.3,14.6,11.5C1080.2,457.2,1088.4,466.6,1094.7,477.3z"/>
				</g>
				<g>
					<path class="st75" d="M1114.3,542.7c-3.2-4.9-6.8-9.4-10.6-13.6c-3.8-4.2-7.9-8.3-12.3-11.8c-4.4-3.6-9-6.9-14-9.8       c-4.9-3-10.1-5.4-15.4-7.8c5.7,1.1,11.4,2.7,16.7,5.4c5.4,2.5,10.3,5.8,14.9,9.5c4.6,3.8,8.7,8.1,12.2,12.8       C1109.3,532,1112.3,537.2,1114.3,542.7z"/>
				</g>
				<g>
					<path class="st75" d="M1094.7,477.3c0.3-8.5,0.5-16.8-0.1-25c-0.2-4.1-0.7-8.2-1.3-12.3c-0.5-4.1-1.5-8.2-2.2-12.4       c2.1,3.7,3.9,7.7,4.9,11.8c1.2,4.1,1.8,8.4,2.1,12.7c0.2,4.3,0.2,8.6-0.4,12.8C1097.1,469.1,1096.3,473.3,1094.7,477.3z"/>
				</g>
				<g>
					<path class="st75" d="M1114.4,541.4c0.6-5.1,1.1-10.1,1.6-15.1c0.5-5,0.9-10,1.1-15c0.2-5,0.2-10,0.1-15       c-0.3-5-0.7-10-1.5-15.1c2.1,4.7,3.5,9.7,4.2,14.8c0.7,5.1,0.9,10.3,0.7,15.4C1120,521.6,1118.2,531.9,1114.4,541.4z"/>
				</g>
			</g>
			<g class="st76">
				<g>
					<path class="st77" d="M951.4,431.9c11.9,4.4,22.5,12,31.7,20.8c9.3,8.8,17,19.1,23.5,30.1l4.5,8.4c1.5,2.8,2.6,5.8,3.9,8.7       c2.7,5.8,4.6,11.9,6.5,18c1.1,3,1.7,6.1,2.4,9.2l2.2,9.3c1,6.3,1.9,12.5,2.7,18.8c-1.6-6.1-2.8-12.3-4.4-18.4l-2.7-9.1       c-0.9-3-1.6-6.1-2.9-9c-2.3-5.8-4.2-11.8-7-17.4c-1.4-2.8-2.4-5.8-4-8.5l-4.5-8.2c-6.3-10.8-13.7-20.9-22.4-29.9       c-2.2-2.2-4.3-4.5-6.7-6.5c-1.2-1-2.3-2.1-3.5-3.1l-3.7-2.9C962.4,438.1,957.1,434.7,951.4,431.9z"/>
				</g>
			</g>
			<g>
				<g>
					<path class="st75" d="M1178.7,387.6c1.4,7.4,2.3,14.9,3.2,22.4c0.7,7.5,1.3,15,1.7,22.6c0.7,15.1,0.4,30.2-0.6,45.3       c-0.6,7.5-1.5,15-2.7,22.5c-1.1,7.5-2.5,14.9-4.5,22.2c-3.8,14.6-9.1,29-17,41.9c3.3-6.8,6.1-13.7,8.4-20.9       c2.4-7.1,4.3-14.3,5.9-21.6c3.2-14.6,5.2-29.5,6.3-44.4c1.3-14.9,1.6-29.9,1.5-44.9C1180.6,417.6,1179.9,402.6,1178.7,387.6z"/>
				</g>
				<g>
					<path class="st75" d="M1205.1,458.4c0.8,9.8-1.3,19.9-5.7,28.9c-2.3,4.5-5.3,8.6-9,12.1c-3.6,3.5-8.2,5.9-12.9,7.4       c4.1-2.8,7.8-5.8,10.9-9.4c3-3.6,5.7-7.5,7.8-11.8c2.1-4.2,3.8-8.7,5.3-13.2C1202.8,467.9,1204.1,463.3,1205.1,458.4z"/>
				</g>
				<g>
					<path class="st75" d="M1207.4,497.8c-1.4,9.8-5.6,19.1-11.8,27c-3.2,3.9-7,7.3-11.4,9.9c-4.3,2.6-9.3,4-14.2,4.5       c4.6-1.9,8.9-3.9,12.6-6.8c3.7-2.9,7.2-6.1,10.1-9.8c3-3.7,5.6-7.7,8-11.8C1203.2,506.6,1205.4,502.3,1207.4,497.8z"/>
				</g>
			</g>
		</g>
		<g class="st1">
			<path class="st78" d="M559,134.7h-7.5v-7.8h7.5V134.7z M559,168.2h-7.5v-7.8h7.5V168.2z"/>
		</g>
		<g class="st1">
			<g>
				<g>
					
						<linearGradient id="SVGID_117_" gradientUnits="userSpaceOnUse" x1="123.5438" y1="529.2003" x2="271.7353" y2="529.2003" gradientTransform="matrix(0.9786 0.2059 -0.2059 0.9786 98.5413 -15.1604)">
						<stop offset="0" style="stop-color:#EAFFD4"/>
						<stop offset="0.8412" style="stop-color:#006A54"/>
					</linearGradient>
					<path class="st79" d="M173.6,612.5c0,0,12.5-40.7,36.9-76.6c0.8-1.1-7.5-3.7-7.5-3.7s12.5-3.4,13.9-5.2       c14.5-19.2,32.6-35.7,54.1-42.1c0,0-117.6-30.1-176,116.9L173.6,612.5z"/>
				</g>
				<g>
					
						<linearGradient id="SVGID_118_" gradientUnits="userSpaceOnUse" x1="-13.085" y1="507.4331" x2="64.3781" y2="507.4331" gradientTransform="matrix(0.9786 0.2059 -0.2059 0.9786 98.5413 -15.1604)">
						<stop offset="0" style="stop-color:#439579"/>
						<stop offset="0.8412" style="stop-color:#006A54"/>
					</linearGradient>
					<path class="st80" d="M48.9,533.3c0,0-16.1-56,0-155.4c0,0-75.2,54.1-86.4,211.8l70.7,9.6L48.9,533.3z"/>
				</g>
				<g>
					
						<linearGradient id="SVGID_119_" gradientUnits="userSpaceOnUse" x1="39.1528" y1="504.2216" x2="181.6844" y2="504.2216" gradientTransform="matrix(0.9786 0.2059 -0.2059 0.9786 98.5413 -15.1604)">
						<stop offset="0" style="stop-color:#EAFFD4"/>
						<stop offset="0.8412" style="stop-color:#006A54"/>
					</linearGradient>
					<path class="st81" d="M102.2,626.8c0,0,19.3-19.7,39.6-53.9c0.8-1.4-7.2-6.3-7.2-6.3s12.4-2.7,13.7-5.2       c22.5-41.3,43.8-99.8,39.1-168.6c0,0-31.5,13.9-70,47.9c-1.6,1.4-3,13-3,13s-4.8-6-6.2-4.6C73.5,481.8,35,530.3,9.4,598.9       L102.2,626.8z"/>
				</g>
				<g class="st74">
					<g>
						<path class="st75" d="M175,403.3c-13.6,13.7-26,28.5-37.8,43.7c-11.9,15.2-22.8,31.1-33.2,47.4c-5.2,8.1-10,16.5-14.9,24.8        L82.2,532c-1.1,2.1-2.3,4.2-3.4,6.4l-3.2,6.5c-8.8,17.2-16,35.1-22.6,53.2l5.8-13.3l2.9-6.6c1-2.2,2.1-4.3,3.1-6.5l6.2-13        l6.6-12.8c4.3-8.6,9.2-16.9,13.8-25.3c5-8.2,9.8-16.6,15-24.6c10.2-16.3,21.1-32.2,32.6-47.6c5.7-7.7,11.6-15.4,17.6-22.9        C162.5,417.9,168.7,410.5,175,403.3z"/>
					</g>
					<g>
						<path class="st75" d="M99.1,511.5c4.8-3.4,9.7-6.6,14.5-9.8c4.9-3.2,9.7-6.3,14.7-9.3c5-3,10.1-5.7,15.2-8.3        c5.2-2.5,10.5-4.9,16-7c-5.8,0.9-11.6,2.4-17.1,4.6c-5.5,2.2-10.8,4.8-15.9,7.8C116.5,495.6,107,502.8,99.1,511.5z"/>
					</g>
					<g>
						<path class="st75" d="M66.5,567c3.9-3.9,8.2-7.4,12.6-10.6c4.4-3.2,9-6.1,13.8-8.6c4.8-2.5,9.8-4.7,14.9-6.4        c5.1-1.8,10.5-3,15.9-4.3c-5.5-0.1-11.2,0.3-16.6,1.8c-5.5,1.2-10.8,3.4-15.8,5.9c-5,2.6-9.7,5.8-13.9,9.5        C73.2,558.1,69.5,562.3,66.5,567z"/>
					</g>
					<g>
						<path class="st75" d="M94.5,508.4c1.4-8,2.9-15.7,5-23.3c1-3.8,2.3-7.5,3.6-11.2c1.3-3.7,3-7.3,4.5-11.1        c-2.7,3-5.1,6.4-6.9,10c-1.9,3.6-3.4,7.5-4.5,11.4c-1.1,3.9-1.9,8-2.2,12C93.8,500.3,93.8,504.4,94.5,508.4z"/>
					</g>
					<g>
						<path class="st75" d="M63.5,564.3c0.4-4.9,1-9.7,1.5-14.4c0.6-4.8,1.1-9.5,1.9-14.2c0.7-4.7,1.8-9.4,2.9-14        c1.2-4.6,2.6-9.2,4.4-13.7c-2.9,3.9-5.2,8.4-6.9,13c-1.7,4.6-2.8,9.4-3.7,14.2C62.1,544.7,61.8,554.6,63.5,564.3z"/>
					</g>
				</g>
				<g class="st76">
					<g>
						<path class="st77" d="M236.9,494.1c-12,1.7-23.3,6.8-33.6,13.1c-10.4,6.4-19.6,14.5-27.8,23.4l-5.9,7c-2,2.3-3.6,4.9-5.4,7.3        c-3.6,4.9-6.6,10.2-9.6,15.5c-1.6,2.6-2.7,5.4-4.1,8.1l-3.9,8.2c-2.1,5.7-4.2,11.3-6.2,17c2.7-5.4,5-10.9,7.7-16.3l4.3-7.9        c1.5-2.6,2.7-5.3,4.4-7.8c3.3-5,6.2-10.2,9.9-14.9c1.8-2.4,3.4-4.9,5.4-7.1l5.8-6.8c8-8.8,16.9-16.8,26.7-23.5        c2.5-1.7,4.9-3.4,7.6-4.8c1.3-0.7,2.6-1.5,3.9-2.2l4-2C225.5,497.8,231,495.6,236.9,494.1z"/>
					</g>
				</g>
				<g>
					<g>
						<path class="st82" d="M33.8,408.4c-2.8,6.6-5.1,13.4-7.3,20.2c-2.1,6.8-4.1,13.8-6,20.7c-3.6,13.9-6.3,28.1-8.3,42.3        c-0.9,7.1-1.6,14.3-1.9,21.5c-0.4,7.2-0.6,14.4-0.2,21.6c0.7,14.4,2.8,28.8,7.6,42.4c-1.7-7-3-14-3.7-21.1        c-0.8-7.1-1.2-14.2-1.3-21.3c-0.1-14.2,0.9-28.5,2.8-42.6c1.7-14.2,4.4-28.2,7.5-42.1C26.1,436,29.6,422.1,33.8,408.4z"/>
					</g>
					<g>
						<path class="st82" d="M-4.7,469.2c-2.7,9-2.6,18.8-0.3,28.1c1.3,4.6,3.2,9.1,6,13c2.7,4,6.5,7.1,10.5,9.5        c-3.2-3.4-6.1-6.9-8.3-10.9c-2.1-4-3.8-8.1-4.9-12.5c-1.1-4.4-1.8-8.8-2.3-13.4C-4.5,478.5-4.8,473.8-4.7,469.2z"/>
					</g>
					<g>
						<path class="st82" d="M-14.6,505.4c-0.6,9.4,1.5,18.9,5.7,27.5c2.2,4.2,5.1,8.2,8.7,11.4c3.5,3.3,7.9,5.5,12.3,7        c-3.9-2.6-7.5-5.4-10.5-8.8c-2.9-3.4-5.5-7.1-7.5-11.1c-2.1-4-3.7-8.2-5.2-12.6C-12.4,514.4-13.7,510-14.6,505.4z"/>
					</g>
				</g>
			</g>
		</g>
		
			<linearGradient id="SVGID_120_" gradientUnits="userSpaceOnUse" x1="-35.8855" y1="26.9917" x2="1201.7317" y2="26.9917" gradientTransform="matrix(1 0 0 -1 0 630)">
			<stop offset="0" style="stop-color:#009475"/>
			<stop offset="1" style="stop-color:#B7FF94"/>
		</linearGradient>
		<path class="st83" d="M-1.2,637.1h1202.9l-1.1-68.2c0,0-493.9,34.4-858.1,10C-197.2,542.7-1.2,637.1-1.2,637.1z"/>
		<g class="st1">
			<g>
				<path class="st84" d="M1078.8,515.6c-3.2,0.1-6.1,1.9-8.2,4.3c-2.1,2.4-3.3,5.4-4.1,8.4c-1.5,5.9-0.5,12.9,1.2,18.7      c6.4-2.3,10.2-9.2,12-12.8C1082.6,528.6,1084.1,516.7,1078.8,515.6"/>
			</g>
			<g>
				<path class="st84" d="M1058.7,554.3c2-2.9,2-6.9,0.4-10.1c-1.6-3.1-4.7-5.4-8.1-6.4c-1.6-0.5-3.4-0.7-4.7,0.3      c-1.3,0.9-1.8,2.5-1.6,4c0.2,1.5,1,2.9,1.9,4.1C1049.7,550.4,1053.5,553.9,1058.7,554.3"/>
			</g>
			<g>
				<g>
					<path class="st85" d="M1058.1,574c0,0,0.1-0.4,0.3-1.2c0.2-0.9,0.4-2,0.6-3.4c0.5-2.8,1.2-6.9,0.6-11.3       c-0.6-4.4-2.4-8.2-4.3-10.4c-0.9-1.1-1.8-1.9-2.4-2.4c-0.3-0.3-0.6-0.4-0.8-0.5c-0.2-0.1-0.3-0.2-0.3-0.2       c-0.1,0.1,1.5,1,3.2,3.3c1.8,2.2,3.5,6,4.1,10.3c0.6,4.3-0.1,8.3-0.5,11.2c-0.2,1.4-0.4,2.6-0.5,3.4       C1058.2,573.5,1058.1,574,1058.1,574z"/>
				</g>
			</g>
			<g>
				<g>
					<path class="st85" d="M1076.8,524.6c0,0-0.1,0.2-0.3,0.5c-0.2,0.4-0.4,0.8-0.6,1.4c-0.6,1.2-1.3,3-2.3,5.3       c-1.9,4.5-4.4,10.7-7,17.6c-2.6,6.9-4.9,13.3-6.4,17.9c-0.8,2.3-1.4,4.2-1.8,5.5c-0.2,0.6-0.3,1.1-0.5,1.5       c-0.1,0.3-0.1,0.5-0.1,0.5c0,0,0.1-0.2,0.2-0.5c0.1-0.4,0.3-0.9,0.5-1.5c0.5-1.3,1.1-3.2,1.9-5.4c1.6-4.6,3.9-10.9,6.5-17.8       c2.6-6.9,5.1-13.2,6.9-17.7c0.9-2.2,1.6-4,2.1-5.3c0.2-0.6,0.4-1.1,0.6-1.5C1076.8,524.8,1076.8,524.6,1076.8,524.6z"/>
				</g>
			</g>
			<g>
				<path class="st84" d="M1065.6,560.9c3.7-6.4,10.7-10.9,18.1-11.5c1.9-0.2,4.2,0.1,5,1.8c0.9,1.7-0.3,3.7-1.5,5.1      c-5.3,5.8-14.3,7.9-21.7,5"/>
			</g>
			<g>
				<g>
					<path class="st85" d="M1080.9,554.5c0,0-0.4,0-1.2,0.1c-0.4,0-0.8,0.1-1.4,0.2c-0.5,0.1-1.1,0.2-1.8,0.4       c-0.7,0.2-1.4,0.3-2.1,0.6c-0.8,0.2-1.6,0.6-2.4,0.9c-1.6,0.8-3.4,1.8-5,3c-1.6,1.3-3,2.7-4.1,4.2c-0.5,0.7-1.1,1.4-1.5,2.1       c-0.4,0.7-0.8,1.3-1.1,2c-0.3,0.6-0.5,1.2-0.7,1.7c-0.2,0.5-0.4,0.9-0.5,1.3c-0.2,0.7-0.3,1.1-0.3,1.1c0.1,0,0.5-1.6,1.8-4       c0.3-0.6,0.7-1.2,1.1-1.9c0.4-0.7,0.9-1.3,1.5-2.1c1.1-1.4,2.5-2.8,4.1-4.1c1.6-1.3,3.3-2.2,4.9-3c0.8-0.4,1.6-0.7,2.3-1       c0.7-0.3,1.5-0.5,2.1-0.7C1079.2,554.7,1080.9,554.6,1080.9,554.5z"/>
				</g>
			</g>
		</g>
		<g class="st1">
			<g>
				<path class="st86" d="M750.6,341.8l20.3,241.5c0,0,2.1,14.6-8.8,14.7c-17.9,0-89.1,0-89.1,0s13.5-3,13.3-9.9      c-0.2-8.1-23.7-248.6-23.7-248.6L750.6,341.8z"/>
				<path class="st87" d="M667.2,593.6c3.5,0,71.5,0.2,89,0c7.6-0.1,8.9-6.8,9-11.1c0-2.1-0.2-3.6-0.2-3.6l-0.5-6.3l-1.3-16      l-1.2-14.1l-1.5-18.2l-1.3-15.3l-14.4-171.6l-88-2.3c0,0,9.9,100.6,16.9,173.9c0.8,8.2,1.5,16,2.2,23.3c0.2,2.3,0.4,4.6,0.6,6.8      c0.7,6.9,1.2,13.3,1.8,18.9c0.3,3,0.5,5.7,0.8,8.2c0.9,9.9,1.4,16.2,1.4,17.4c0,0.7-0.1,1.4-0.2,2      C678.8,593.4,668.6,593.6,667.2,593.6z"/>
				<polygon class="st88" points="541.8,210.4 964.3,210.4 914.8,409.1 908,436.3 885,528.9 456.9,528.9     "/>
				<polygon class="st87" points="964.3,210.4 971.1,212.7 894.1,535.8 885,528.9     "/>
				<polygon class="st86" points="894.1,535.8 468.6,535.8 456.9,528.9 885,528.9     "/>
				<rect x="652.6" y="593.7" class="st88" width="92.1" height="4.4"/>
				<polygon class="st86" points="676,535.8 676.5,539.2 763.1,556.7 761.9,542.5 761.3,535.8     "/>
				<path class="st89" d="M667.2,593.6c3.5,0,71.5,0.2,89,0c7.6-0.1,8.9-6.8,9-11.1L679,566.3c0.9,9.9,1.4,16.2,1.4,17.4      c0,0.7-0.1,1.4-0.2,2C678.8,593.4,668.6,593.6,667.2,593.6z"/>
				<polygon class="st89" points="702.5,466.3 885,528.9 900.6,466.3     "/>
				<polygon class="st88" points="541.8,210.4 964.3,210.4 900.6,466.3 473.3,466.4     "/>
			</g>
			<path class="st86" d="M659.6,498.7c1.2-6.3,7.3-11.4,13.6-11.4c6.3,0,10.4,5.1,9.2,11.4c-1.2,6.3-7.3,11.4-13.6,11.4     C662.5,510.1,658.4,505,659.6,498.7z"/>
			<polygon class="st90" points="493.2,455.3 888.8,455.3 933.6,276.8 937,263.1 939.9,251.5 946.8,224.1 556.9,224.1 549.4,251.5      546.2,263.1 542.4,276.8    "/>
			<polygon class="st91" points="556.9,224.1 946.8,224.1 939.9,251.5 549.4,251.5    "/>
			<g>
				<polygon class="st37" points="625.2,443.3 515.7,443.3 565,265.5 674.7,265.5     "/>
				<path class="st92" d="M596.6,303.2c0,0-0.8,4.1,2.1,6.9c2.9,2.9-10.7,14.4-15.9,33.7c-5.1,19.1-16.7,60.6-27.1,74.4      c0.7-0.8,3.2-3.2,8.3-2c6.2,1.5,17.2,3.6,22.1-0.3c3.5-2.7,9.6,0.2,13,2.2c-2.6-13.9,8.8-55.1,14.3-74.2      c5.5-19.3-1.6-30.8,2.8-33.7c4.5-2.9,5.9-6.9,5.9-6.9c3.1-0.9,7.8-3.2,7.8-3.2c1.3-3.8-0.4-9.3-0.4-9.3s-2.7,3.7-8.3,4      c-5.7,0.2-10.5,3.5-10.5,3.5s-3-3.3-8.6-3.5c-5.5-0.2-6.1-4-6.1-4s-4.8,5.4-5.6,9.3C590.5,300,594,302.3,596.6,303.2z"/>
			</g>
			<g>
				<polygon class="st37" points="693.2,403.6 661.4,403.6 675.7,351.9 707.6,351.9     "/>
				<path class="st93" d="M684.9,362.9c0,0-0.2,1.2,0.6,2c0.8,0.8-3.1,4.2-4.6,9.8c-1.5,5.6-4.8,17.6-7.9,21.6      c0.2-0.2,0.9-0.9,2.4-0.6c1.8,0.4,5,1,6.4-0.1c1-0.8,2.8,0.1,3.8,0.6c-0.8-4.1,2.6-16,4.2-21.6c1.6-5.6-0.5-9,0.8-9.8      c1.3-0.8,1.7-2,1.7-2c0.9-0.3,2.3-0.9,2.3-0.9c0.4-1.1-0.1-2.7-0.1-2.7s-0.8,1.1-2.4,1.2c-1.6,0.1-3.1,1-3.1,1s-0.9-1-2.5-1      c-1.6-0.1-1.8-1.2-1.8-1.2s-1.4,1.6-1.6,2.7C683.1,362,684.2,362.6,684.9,362.9z"/>
			</g>
			<g>
				<polygon class="st37" points="740.8,403.7 709,403.7 723.3,351.9 755.3,351.9     "/>
				<path class="st94" d="M732.5,362.9c0,0-0.2,1.2,0.6,2c0.8,0.8-3.1,4.2-4.6,9.8c-1.5,5.6-4.8,17.6-7.9,21.6      c0.2-0.2,0.9-0.9,2.4-0.6c1.8,0.4,5,1,6.4-0.1c1-0.8,2.8,0.1,3.8,0.6c-0.8-4.1,2.6-16,4.2-21.6c1.6-5.6-0.5-9,0.8-9.8      c1.3-0.8,1.7-2,1.7-2c0.9-0.3,2.3-0.9,2.3-0.9c0.4-1.1-0.1-2.7-0.1-2.7s-0.8,1.1-2.4,1.2s-3.1,1-3.1,1s-0.9-1-2.5-1      s-1.8-1.2-1.8-1.2s-1.4,1.6-1.6,2.7C730.8,362,731.8,362.6,732.5,362.9z"/>
			</g>
			<g>
				<polygon class="st37" points="789.6,405 757.8,405 772.1,353.3 804,353.3     "/>
				<path class="st95" d="M781.3,364.2c0,0-0.2,1.2,0.6,2c0.8,0.8-3.1,4.2-4.6,9.8c-1.5,5.6-4.8,17.6-7.9,21.6      c0.2-0.2,0.9-0.9,2.4-0.6c1.8,0.4,5,1,6.4-0.1c1-0.8,2.8,0.1,3.8,0.6c-0.8-4.1,2.6-16,4.2-21.6c1.6-5.6-0.5-9,0.8-9.8      c1.3-0.8,1.7-2,1.7-2c0.9-0.3,2.3-0.9,2.3-0.9c0.4-1.1-0.1-2.7-0.1-2.7s-0.8,1.1-2.4,1.2c-1.6,0.1-3.1,1-3.1,1s-0.9-1-2.5-1      c-1.6-0.1-1.8-1.2-1.8-1.2s-1.4,1.6-1.6,2.7C779.5,363.3,780.5,364,781.3,364.2z"/>
			</g>
			<path class="st96" d="M769.2,332.9h-75.4c-5.6,0-9.7-5.4-8.1-10.8v0c1-3.6,4.4-6.2,8.1-6.2h75.4c5.6,0,9.7,5.4,8.1,10.8v0     C776.4,330.3,773,332.9,769.2,332.9z"/>
			<polygon class="st95" points="889,277.2 695.2,277.2 698,267.8 891.9,267.8    "/>
			<polygon class="st95" points="884,293.1 690.1,293.1 693,283.8 886.8,283.8    "/>
			<g>
				<path class="st97" d="M928.1,233c1.9,0,3,1.5,2.6,3.4c-0.5,1.9-2.4,3.4-4.3,3.4c-1.9,0-3-1.5-2.6-3.4      C924.3,234.6,926.2,233,928.1,233z"/>
				<path class="st97" d="M916.7,233c1.9,0,3,1.5,2.6,3.4c-0.5,1.9-2.4,3.4-4.3,3.4s-3-1.5-2.6-3.4C912.9,234.6,914.8,233,916.7,233      z"/>
				<path class="st97" d="M900.2,236.5c0.5-1.9,2.4-3.4,4.3-3.4c1.9,0,3,1.5,2.6,3.4c-0.5,1.9-2.4,3.4-4.3,3.4      S899.7,238.4,900.2,236.5z"/>
			</g>
		</g>
		<g class="st1">
			<g>
				
					<rect x="286.9" y="376" transform="matrix(-1 -1.224647e-16 1.224647e-16 -1 656.3685 834.5538)" class="st98" width="82.5" height="82.5"/>
				
					<rect x="261.5" y="376" transform="matrix(-1 -1.224647e-16 1.224647e-16 -1 605.4674 834.5538)" class="st99" width="82.5" height="82.5"/>
			</g>
		</g>
		<g class="st1">
			<g>
				
					<rect x="867.3" y="508.6" transform="matrix(-1 -1.224647e-16 1.224647e-16 -1 1817.0513 1099.8256)" class="st100" width="82.5" height="82.5"/>
				
					<rect x="841.8" y="508.6" transform="matrix(-1 -1.224647e-16 1.224647e-16 -1 1766.1503 1099.8256)" class="st93" width="82.5" height="82.5"/>
			</g>
		</g>
		<g class="st1">
			<g>
				<g>
					<rect x="273.5" y="458.5" class="st92" width="136.7" height="136.7"/>
					<rect x="315.6" y="458.5" class="st101" width="136.7" height="136.7"/>
				</g>
			</g>
		</g>
		<g class="st1">
			<g>
				<path class="st37" d="M419.5,520.4c-0.7,0.8-0.8,1.7-0.4,2.6c0,0,0,0,0,0c0.6,1.7,2.7,3.7,5.1,5.6c0.3,0.2,0.6,0.5,0.8,0.7      c0.1,0.1,0.1,0.1,0.2,0.2c0,0,0.1,0.1,0.1,0.1c2.3,2.1,1.4,2.6,5.4,6.8c4.6,4.8,7.8,4.9,8.7,4.4c0.8-0.4-0.8-2.9-2.5-5.8      c-0.1-0.1-0.2-0.3-0.3-0.4c-0.2-0.4-0.5-0.8-0.7-1.1c-2-3.4-1.5-5.1-1-10.2c0.4-4.2,6.5-23.3,6.5-23.3l-8.8-1.5      c0,0-2.7,15.2-5.6,17.5c-1.6,1.2-3.3,1.3-4.8,2.2c-0.1,0.1-0.2,0.1-0.3,0.2C421.1,519,420.2,519.6,419.5,520.4z"/>
				<path class="st102" d="M419.5,520.4c-0.7,0.8-0.8,1.7-0.4,2.6c0,0,0,0,0,0c0.8,1.7,2.8,3.7,5.1,5.6c0.3,0.3,0.6,0.5,0.8,0.7      c0.1,0.1,0.1,0.1,0.2,0.2c0,0,0.1,0.1,0.1,0.1c2.3,2.1,1.4,2.6,5.4,6.8c4.6,4.8,7.8,4.9,8.7,4.4c0.8-0.4-0.8-2.9-2.5-5.8      c-0.9-0.3-5.1-2-8.2-6.1c-2.8-3.5-4.6-8.1-6.5-10.7c-0.1,0.1-0.2,0.1-0.3,0.2C421.1,519,420.2,519.6,419.5,520.4z"/>
				<path class="st37" d="M490.8,514.9c0.5,2.7,4.4,2.3,8.8,1.2c4.3-1.1,3.3,0.2,9.5-0.5s8.1-3,8.2-3.9c0.2-0.8-2.9-1.1-6.2-1.5      c-0.4,0-0.8-0.1-1.2-0.1c-3.7-0.5-6.4-2.9-9.8-4.8c-3.2-1.9-7.9-9.4-7.9-9.4l-8.5,0.7c0,0,4.4,6.8,6.2,9.7c1,1.7,1,4,0.8,5.8      C490.7,512.9,490.6,513.9,490.8,514.9z"/>
				<path class="st102" d="M499.6,516.1c4.3-1.1,3.3,0.2,9.5-0.5s8.1-3,8.2-3.9c0.2-0.8-2.9-1.1-6.2-1.5l0,0.1c0,0-3.7,2.6-8.9,2.8      c-4.2,0.1-8.6-1.1-11.5-1.1c-0.1,1-0.1,1.9,0.1,2.9C491.3,517.6,495.2,517.1,499.6,516.1z"/>
				<path class="st37" d="M471.9,390.3c0,0,2-5,4.2-5.2c2.2-0.2,9.3-1.3,9.8-0.3c0.5,1,0,4.6-1.5,6c-1.5,1.3-10.9,3.4-10.9,3.4      L471.9,390.3z"/>
				<path class="st103" d="M458.3,460.6L440,509.8c0,0-2.8,0.3-5.5-0.5c-2.5-0.7-5.3-2.6-5.3-2.6s4.5-47.2,12.8-57.1      S458.3,460.6,458.3,460.6z"/>
				<path class="st104" d="M386,440.7c0,0,52.5-17.8,64.2-14c11.7,3.8,46.9,73.7,46.9,73.7s-0.8,1.1-3,1.9c-2,0.8-6.9,0.7-6.9,0.7      s-31.7-27.2-35.5-35.1c-3.8-7.9-5.3-15.5-9.1-14.7c-3.8,0.8-48.7,18.5-58.9,7.9c-10.2-10.6-7.5-24.3-7.5-24.3L386,440.7z"/>
				<path class="st102" d="M422,358.9c0.8-1.7,1.8-4.8,2.2-10.3c-0.1,0.5-1,7.5-3.7,11.4c-10.9,7.2-31.9,31.1-31.4,35.7      c0,0-7.4-12.5-7.5-12.6c0,0-13.6-17.3,2.5-27.2c8.2-5,8.2-11.5,7.8-17.1c-0.3-5.6,2.2-29.8,18.6-23.5c0,0,2.6-1.2,3.8-1      c0,0-1,0.2-1.5,0.7c1.9-0.1,4.6,0,6.9,1.3C425.9,319.7,431.3,350.4,422,358.9z"/>
				<path class="st37" d="M416,359.6c0.1,0-5.3,2.8-9.3,1.7c-3.8-1-6.2-5.9-6.2-5.9c1.6-0.3,2.1-2.5,2-11.9l0.7,0.1l12.1,2.4      c0,0-0.3,3.8-0.3,7.4C415.1,356.4,415.3,359.2,416,359.6z"/>
				<path class="st105" d="M415.4,345.9c0,0-0.3,3.8-0.3,7.4c-6.8-0.2-10.4-6.4-11.9-9.8L415.4,345.9z"/>
				<path class="st102" d="M402,342.2c0,0-3.6-5.6-4.4-10.4c-0.6-3.4,1.1-16.2,13.9-14.3c0,0,3.7,0.4,7.2,2.7      c2.8,1.9,6.8,5.9,2.3,17l-1.2,3.8L402,342.2z"/>
				<path class="st37" d="M417.7,349.3c0,0-16.1,0.3-16.1-9.7c0-10-2.1-16.7,8.2-17.3c10.3-0.6,12.3,3.2,13.1,6.6      C423.7,332.2,421.9,349,417.7,349.3z"/>
				<path class="st102" d="M403.6,323.4c0,0,11-7.5,14.4-2.3c1.1-0.9,4-2.2,5.4,1.4c1.8,4.5,1.3,12.2,1.3,12.2      c-1.5,0.2-4.5-3.8-5.3-6.4c-0.6-1.9-0.8-4.9-1.8-5.7c-1.4,3.2-5.3,10.7-10.6,12.1c-6.8,1.7-9.7-0.1-9.7-0.1      S397.2,328.8,403.6,323.4z"/>
				<path class="st96" d="M373.7,441c0.9,2.4,3.5,3,7.1,2.6c6.8-0.8,16.9-5.4,24.1-8.5c11.1-4.8,16.1-0.3,19.6-3.3      c3.5-3.1-4-9.9,2.5-41.4c2.2-10.7-11.8-33.7-11.8-33.7s-1,6.2-14.7-1.3c-0.1,0-5.8,7.6-10.9,17.2c-5.6,10.7-11,23.6-9.4,30.2      C383.3,415.5,371.2,434,373.7,441z"/>
				<path class="st96" d="M415.2,356.7l8.3,34.1c0,0,1,1.8,2.7,4.5c3.8,6.1,10.8,16.6,15.3,17.6c2.2,0.5,6.9-1.3,12.2-4      c9.9-5,21.6-12.8,21.6-12.8c0.8-4.5-3.2-8.2-3.2-8.2s-23.7,8.9-26,9.1c-5.1,0.4-10.3-24.4-15.1-32.6      C427.5,358.3,415.2,356.7,415.2,356.7z"/>
				<path class="st106" d="M373.7,441c0.9,2.4,3.5,3,7.1,2.6c4.7-2,25-9.9,24.8-15.2c-0.3-7.9-3.9-8.1-1.4-17.9      c2-7.8-16.7-22.4-19.7-25.5c-5.6,10.7-5.8,11.2-4.2,17.8C383.3,415.5,371.2,434,373.7,441z"/>
				<path class="st37" d="M407.2,408.9c0,0,4.6-3.6,9-2.7c4.4,0.9,6.5,3.9,6.4,5.2c-0.2,1.4-2.5,5.2-5.8,5.6      c-3.3,0.3-12.9-2.1-12.9-2.1L407.2,408.9z"/>
				<path class="st96" d="M400.5,355.3c0,0-13.1,0.8-17.6,7.1c-6.4,8.9-21.7,48.5-14.4,53.5c8.2,5.7,39.8-0.2,39.8-0.2      s1-4.5-0.4-6.7c-1.3-2.2-23.2-5.7-24.2-6.7c-1-1,12.6-19.6,12.6-22.7C396.4,376.7,400.5,355.3,400.5,355.3z"/>
			</g>
			<g>
			</g>
		</g>
		<g class="st1">
			<polygon class="st107" points="305.3,604.5 245.5,604.5 251.2,531.2 295.6,531.2    "/>
			<polygon class="st108" points="294.5,604.5 234.7,604.5 240.4,531.2 288.8,531.2    "/>
			<path class="st107" d="M264.9,548.2c-6.2,0-11.3-5.1-11.3-11.3c0-0.8,0.6-1.4,1.4-1.4c0.8,0,1.4,0.6,1.4,1.4     c0,4.7,3.8,8.5,8.5,8.5s8.5-3.8,8.5-8.5c0-0.8,0.6-1.4,1.4-1.4c0.8,0,1.4,0.6,1.4,1.4C276.3,543.1,271.2,548.2,264.9,548.2z"/>
		</g>
		<g class="st1">
			<polygon class="st99" points="865.5,599.3 805.8,599.3 811.5,526 855.9,526    "/>
			<polygon class="st95" points="854.7,599.3 795,599.3 800.6,526 849,526    "/>
			<path class="st109" d="M825.2,542.9c-6.2,0-11.3-5.1-11.3-11.3c0-0.8,0.6-1.4,1.4-1.4c0.8,0,1.4,0.6,1.4,1.4     c0,4.7,3.8,8.5,8.5,8.5s8.5-3.8,8.5-8.5c0-0.8,0.6-1.4,1.4-1.4s1.4,0.6,1.4,1.4C836.5,537.9,831.4,542.9,825.2,542.9z"/>
		</g>
		<g class="st1">
			<polygon class="st96" points="864.2,508.6 930.6,508.6 924.3,427.2 875,427.2    "/>
			<polygon class="st110" points="876.2,508.6 942.6,508.6 932.3,427.2 882.6,427.2    "/>
			<path class="st111" d="M909,445.7c-6.7,0-12.2-5.5-12.2-12.2c0-0.7,0.5-1.2,1.2-1.2s1.2,0.5,1.2,1.2c0,5.4,4.4,9.8,9.8,9.8     c5.4,0,9.8-4.4,9.8-9.8c0-0.7,0.5-1.2,1.2-1.2c0.7,0,1.2,0.5,1.2,1.2C921.2,440.2,915.8,445.7,909,445.7z"/>
		</g>
	</g>
</g>
</svg>